<svg width="114" height="20" viewBox="0 0 114 20" fill="none" xmlns="http://www.w3.org/2000/svg">
  <path d="M5.63751 5.24998L0.375977 10.5L5.63751 15.875C6.13861 16.375 6.89026 16.375 7.39136 15.875C7.89246 15.375 7.89246 14.625 7.39136 14.125L4.00894 10.75L3.00675 11.375L7.39136 6.99998C7.64191 6.74998 7.76719 6.49998 7.76719 6.12498C7.76719 5.74998 7.64191 5.49998 7.39136 5.24998C6.89026 4.74998 6.13861 4.74998 5.63751 5.24998ZM20.1694 5.24998L25.4309 10.625L20.1694 16C19.6683 16.5 18.9166 16.5 18.4155 16C17.9144 15.5 17.9144 14.75 18.4155 14.25L21.798 10.875L22.8002 11.5L18.4155 7.12498C18.165 6.87498 18.0397 6.62498 18.0397 6.24998C18.0397 5.87498 18.165 5.62498 18.4155 5.37498C18.9166 4.74998 19.6683 4.74998 20.1694 5.24998ZM10.398 16.125C11.0243 16.375 11.776 16.125 12.0265 15.5L15.91 6.62498C16.0353 6.24998 16.0353 5.99998 15.91 5.62498C15.7848 5.37498 15.5342 5.12498 15.2837 4.87498C14.6573 4.62498 13.9056 4.87498 13.6551 5.49998L9.77158 14.375C9.64631 14.75 9.64631 15 9.77158 15.375C9.89686 15.75 10.1474 16 10.398 16.125Z" fill="white"/>
  <path d="M43.0317 10.4412L37.9606 5.57874L36.6828 7.01874L39.42 9.42249H32.9058V11.535H39.42L36.6828 13.9387L37.9606 15.3787L43.0342 10.5162L43.0317 10.4412ZM81.4748 10.4412L76.4011 5.57874L75.1233 7.01874L77.8618 9.42249H71.3476V11.535H77.8618L75.1246 13.9387L76.4024 15.3787L81.476 10.5162L81.4748 10.4412Z" fill="#9696A2"/>
  <path d="M57.1075 16.8538L50.8438 10.6038V6.85376L54.602 4.35376L57.1075 6.85376L59.613 4.35376L63.3712 6.85376V10.6038L57.1075 16.8538Z" fill="#E84E1B"/>
  <rect x="89" y="4" width="21" height="13" fill="white"/>
  <rect x="89" y="8" width="21" height="5" fill="#E84E1B"/>
</svg>
