<svg width="244" height="218" viewBox="0 0 244 218" fill="none" xmlns="http://www.w3.org/2000/svg">
<path d="M194.18 14.0012C215.099 22.9269 236.018 36.2281 241.945 54.6046C248.046 72.9811 239.155 96.7832 233.577 119.535C227.999 142.112 225.558 163.814 215.273 182.015C204.814 200.217 186.684 214.918 166.812 217.543C147.113 220.169 125.846 210.718 98.6518 208.443C71.6319 206.342 38.685 211.418 19.6839 198.992C0.682823 186.566 -4.1982 156.813 3.47197 132.311C11.1421 107.634 31.3635 88.5575 44.7863 69.1308C58.0348 49.7042 64.4847 30.1025 77.9075 17.6765C91.3303 5.25044 111.726 0.175015 132.296 0C152.866 0 173.436 4.90041 194.18 14.0012Z" fill="black"/>
</svg>
