<svg width="40" height="40" fill="#1a3b71" enable-background="new 0 0 511.857 511.857"  viewBox="0 0 511.857 511.857" xmlns="http://www.w3.org/2000/svg"><g><path d="m496.857 32.769c-8.284 0-15 6.716-15 15v5.432c-28.05 40.627-73.835 64.752-123.349 64.752h-328.508v-5c0-8.284-6.716-15-15-15s-15 6.716-15 15v100.272c0 8.284 6.716 15 15 15s15-6.716 15-15v-5h58.34v191.121c0 5.367 2.867 10.325 7.519 13.001l112.519 64.742c2.315 1.333 4.897 1.999 7.48 1.999s5.165-.666 7.48-1.999l112.518-64.742c4.651-2.676 7.518-7.634 7.518-13.001v-191.12h15.135c49.513 0 95.299 24.126 123.349 64.752v5.432c0 8.284 6.716 15 15 15s15-6.716 15-15v-230.641c-.001-8.285-6.716-15-15.001-15zm-404.986 145.457v-30.273h240v30.273zm-61.871-30.273h31.871v30.273h-31.871zm283.374 242.719-97.517 56.111-97.518-56.111v-182.446h195.034v182.446zm48.497-212.394v-30.378c45.308-.834 87.804-18.486 119.986-48.881v128.14c-32.182-30.394-74.678-48.046-119.986-48.881z"/><path d="m149.018 276.932 20 79.603c1.676 6.669 7.672 11.345 14.548 11.345h64.581c6.877 0 12.872-4.676 14.548-11.345l20-79.603c1.364-5.432-.41-11.172-4.604-14.885-4.192-3.714-10.107-4.782-15.332-2.77l-17.268 6.645-19.449-17.991c-5.748-5.316-14.621-5.316-20.371 0l-19.45 17.991-17.268-6.645c-5.228-2.011-11.139-.943-15.332 2.77-4.192 3.713-5.968 9.453-4.603 14.885zm50.718 17.356 16.121-14.911 16.12 14.911c3.941 3.644 9.503 4.89 14.589 3.328l-10.116 40.264h-41.186l-10.116-40.264c5.084 1.561 10.648.318 14.588-3.328z"/></g></svg>