<svg id="Layer_5" enable-background="new 0 0 64 64" height="512" viewBox="0 0 64 64" width="512" xmlns="http://www.w3.org/2000/svg"><g><g><path d="m6 24c-2.209 0-4 1.791-4 4v8c0 2.209 1.791 4 4 4h6v-16z" fill="#f0bc5e"/></g><g><g><path d="m33 38h-1v-12h1c3.309 0 6 2.691 6 6s-2.691 6-6 6z" fill="#f0bc5e"/></g></g><g><path d="m58 26h-4v-2h-8v2h-4v11h4v2h8v-2h4z" fill="#f0bc5e"/></g><g><path d="m34 3c-12.479 0-23.686 8.192-27.546 20h-.454c-2.757 0-5 2.243-5 5v8c0 2.757 2.243 5 5 5h.454c3.86 11.808 15.067 20 27.546 20 15.99 0 29-13.009 29-29s-13.01-29-29-29zm-30.816 34h5.816v-2h-6v-2h6v-2h-6v-2h6v-2h-5.816c.414-1.161 1.514-2 2.816-2h6.205l12.795-5.484v24.967l-12.795-5.483h-6.205c-1.302 0-2.402-.839-2.816-2zm23.816-18h4v26h-4zm7 40c-11.398 0-21.654-7.342-25.434-18h3.229l14 6h7.205v-30h-7.205l-14 6h-3.229c3.78-10.658 14.036-18 25.434-18 14.888 0 27 12.112 27 27s-12.112 27-27 27z"/><path d="m41 26h2v12h-2z"/><path d="m45 22h2v20h-2z"/><path d="m49 24h2v16h-2z"/><path d="m53 22h2v20h-2z"/><path d="m57 26h2v12h-2z"/><path d="m48.884 49.536 1.295 1.523c.527-.448 1.042-.923 1.529-1.412l-1.416-1.412c-.449.45-.923.888-1.408 1.301z"/><path d="m38.793 54.5.414 1.957c.626-.133 1.258-.292 1.877-.475l-.564-1.919c-.571.168-1.152.315-1.727.437z"/><path d="m45.771 51.763 1.023 1.719c.589-.351 1.175-.734 1.743-1.141l-1.164-1.626c-.522.373-1.061.726-1.602 1.048z"/><path d="m42.331 53.444.723 1.865c.642-.249 1.284-.53 1.909-.835l-.877-1.797c-.575.281-1.165.539-1.755.767z"/><path d="m19.946 13.791c4.056-3.134 8.915-4.791 14.054-4.791v-2c-5.585 0-10.868 1.801-15.276 5.209z"/><path d="m15.366 15.332 1.49 1.335c.606-.677 1.256-1.322 1.931-1.917l-1.324-1.5c-.733.646-1.438 1.347-2.097 2.082z"/></g></g></svg>